<svg xmlns="http://www.w3.org/2000/svg" xmlns:xlink="http://www.w3.org/1999/xlink" xmlns:lucid="lucid" width="1360" height="1760"><g transform="translate(0 0)" lucid:page-tab-id="0_0"><path d="M0 0h1360v1760H0z" fill="#fff"/><path d="M558 180c17.67 0 32 15.13 32 33.8 0 18.66-14.33 33.8-32 33.8h-96c-17.67 0-32-15.14-32-33.8 0-18.67 14.33-33.8 32-33.8z" stroke="#000" stroke-width="2" fill="#fff"/><use xlink:href="#a" transform="matrix(1,0,0,1,430,180) translate(58.525 37.6)"/><path d="M451.2 307.23H590l-21.2 79.52H430z" stroke="#000" stroke-width="2" fill="#fff"/><use xlink:href="#b" transform="matrix(1,0,0,1,430,307.2289156626506) translate(35.775 32.8)"/><use xlink:href="#c" transform="matrix(1,0,0,1,430,307.2289156626506) translate(82.67500000000001 32.8)"/><use xlink:href="#d" transform="matrix(1,0,0,1,430,307.2289156626506) translate(104.225 32.8)"/><use xlink:href="#e" transform="matrix(1,0,0,1,430,307.2289156626506) translate(27.075000000000003 54.4)"/><use xlink:href="#f" transform="matrix(1,0,0,1,430,307.2289156626506) translate(112.025 54.4)"/><path d="M510 247.6v58.63" stroke="#000" stroke-width="2" fill="none"/><path/><path d="M510 306.23l-4.64-14.26h9.28z"/><path d="M510.73 307.23h-1.46L504 290.97h12zm-4-14.26L510 303l3.26-10.03z"/><path d="M430 446.4h160V506H430z" stroke="#000" stroke-width="2" fill="#fff"/><use xlink:href="#g" transform="matrix(1,0,0,1,430,446.3855421686747) translate(62.775 33.6)"/><use xlink:href="#h" transform="matrix(1,0,0,1,430,446.3855421686747) translate(71.725 33.6)"/><use xlink:href="#i" transform="matrix(1,0,0,1,430,446.3855421686747) translate(87.225 33.6)"/><path d="M510 386.75v58.9" stroke="#000" stroke-width="2" fill="none"/><path/><path d="M510 445.64l-4.64-14.27h9.28z"/><path d="M510.8 446.4h-1.6l-5.2-16.03h12zm-4.06-14.03L510 442.4l3.26-10.03z"/><path d="M510 565.66l60 49.7-60 49.7-60-49.7z" stroke="#000" stroke-width="2" fill="#fff"/><use xlink:href="#g" transform="matrix(1,0,0,1,450,565.6626506024096) translate(33.025 53.6)"/><use xlink:href="#j" transform="matrix(1,0,0,1,450,565.6626506024096) translate(41.974999999999994 53.6)"/><use xlink:href="#k" transform="matrix(1,0,0,1,450,565.6626506024096) translate(67.975 53.6)"/><path d="M510 506.02v58.35" stroke="#000" stroke-width="2" fill="none"/><path/><path d="M510 564.37l-4.64-14.27h9.28z"/><path d="M510.5 566.07l-.5-.4-.5.4-5.5-16.97h12zm-3.76-14.97l3.26 10.03 3.26-10.03z"/><path d="M810 585.58h140v59.64H810z" stroke="#000" stroke-width="2" fill="#fff"/><use xlink:href="#g" transform="matrix(1,0,0,1,810,585.578313253012) translate(40.55 33.6)"/><use xlink:href="#h" transform="matrix(1,0,0,1,810,585.578313253012) translate(49.5 33.6)"/><use xlink:href="#l" transform="matrix(1,0,0,1,810,585.578313253012) translate(65 33.6)"/><use xlink:href="#m" transform="matrix(1,0,0,1,810,585.578313253012) translate(73.94999999999999 33.6)"/><use xlink:href="#i" transform="matrix(1,0,0,1,810,585.578313253012) translate(89.44999999999999 33.6)"/><path d="M809.13 614.4v2l-119.57-.04H613.7v-2h75.86zM570 616.36v-2h12.8v2zM570 616.36h-1.2l1.2-1-1.2-1h1.2z"/><path d="M809.13 615.4l-14.27 4.63v-9.27z"/><path d="M810 614.63v1.53l-16.14 5.25v-12zm-14.14 4.03l10.03-3.26-10.04-3.26z"/><use xlink:href="#n" transform="matrix(1,0,0,1,582.7866451643042,604.5614457831325) translate(0 14.4)"/><path d="M805.9 704.86H970l-15.9 59.63H790z" stroke="#000" stroke-width="2" fill="#fff"/><use xlink:href="#o" transform="matrix(1,0,0,1,790,704.855421686747) translate(17.07499999999999 33.6)"/><use xlink:href="#p" transform="matrix(1,0,0,1,790,704.855421686747) translate(95.02499999999999 33.6)"/><path d="M880 645.22v58.64" stroke="#000" stroke-width="2" fill="none"/><path/><path d="M880 703.86l-4.64-14.26h9.28z"/><path d="M880.73 704.86h-1.46L874 688.6h12zm-4-14.26l3.27 10.03 3.26-10.03z"/><path d="M805.9 824.13H970l-15.9 59.64H790z" stroke="#000" stroke-width="2" fill="#fff"/><use xlink:href="#b" transform="matrix(1,0,0,1,790,824.132530120482) translate(32.074999999999996 33.6)"/><use xlink:href="#q" transform="matrix(1,0,0,1,790,824.132530120482) translate(78.975 33.6)"/><path d="M880 937.7l75 55.4-75 55.4-75-55.4z" stroke="#000" stroke-width="2" fill="#fff"/><use xlink:href="#r" transform="matrix(1,0,0,1,805,937.7048192771085) translate(29.525 48.3)"/><use xlink:href="#s" transform="matrix(1,0,0,1,805,937.7048192771085) translate(110.475 48.3)"/><use xlink:href="#t" transform="matrix(1,0,0,1,805,937.7048192771085) translate(42.05 69.9)"/><path d="M880 764.5v58.64" stroke="#000" stroke-width="2" fill="none"/><path/><path d="M880 823.14l-4.64-14.27h9.28z"/><path d="M880.73 824.13h-1.46L874 807.87h12zm-4-14.26L880 819.9l3.26-10.03z"/><path d="M880 883.77v52.54" stroke="#000" stroke-width="2" fill="none"/><path/><path d="M880 936.3l-4.64-14.26h9.28z"/><path d="M880.48 938.06l-.48-.36-.48.36-5.53-17.02h12zm-3.74-15.02l3.26 10.03 3.26-10.03z"/><path d="M880 1241.6l65 49.7-65 49.7-65-49.7z" stroke="#000" stroke-width="2" fill="#fff"/><use xlink:href="#g" transform="matrix(1,0,0,1,815,1241.6024096385543) translate(38.025 53.6)"/><use xlink:href="#j" transform="matrix(1,0,0,1,815,1241.6024096385543) translate(46.974999999999994 53.6)"/><use xlink:href="#k" transform="matrix(1,0,0,1,815,1241.6024096385543) translate(72.975 53.6)"/><path d="M421.2 1300H620l-21.2 79.52H400z" stroke="#000" stroke-width="2" fill="#fff"/><use xlink:href="#u" transform="matrix(1,0,0,1,400,1300) translate(38.099999999999994 32.8)"/><use xlink:href="#v" transform="matrix(1,0,0,1,400,1300) translate(103.95 32.8)"/><use xlink:href="#w" transform="matrix(1,0,0,1,400,1300) translate(55.574999999999996 54.4)"/><use xlink:href="#x" transform="matrix(1,0,0,1,400,1300) translate(125.475 54.4)"/><use xlink:href="#y" transform="matrix(1,0,0,1,400,1300) translate(155.425 54.4)"/><path d="M511 1299h-2V713.1h2zm0-607.5h-2v-26.44h2zM511 665.06h-1l1-.83zm-1 0h-1v-.83z"/><path d="M510 1299l-4.64-14.26h9.28z"/><path d="M510.73 1300h-1.46l-5.28-16.26h12zm-4-14.26l3.27 10.03 3.26-10.03z"/><use xlink:href="#z" transform="matrix(1,0,0,1,493.525,691.5006600738473) translate(0 14.4)"/><path d="M780 1102.45h200v79.5H780z" stroke="#000" stroke-width="2" fill="#fff"/><use xlink:href="#A" transform="matrix(1,0,0,1,780,1102.4457831325303) translate(18.32499999999999 32.8)"/><use xlink:href="#w" transform="matrix(1,0,0,1,780,1102.4457831325303) translate(101.27499999999999 32.8)"/><use xlink:href="#B" transform="matrix(1,0,0,1,780,1102.4457831325303) translate(171.175 32.8)"/><use xlink:href="#C" transform="matrix(1,0,0,1,780,1102.4457831325303) translate(10.824999999999989 54.4)"/><use xlink:href="#w" transform="matrix(1,0,0,1,780,1102.4457831325303) translate(93.77499999999999 54.4)"/><use xlink:href="#m" transform="matrix(1,0,0,1,780,1102.4457831325303) translate(163.675 54.4)"/><use xlink:href="#i" transform="matrix(1,0,0,1,780,1102.4457831325303) translate(179.175 54.4)"/><path d="M881 1102.45h-2v-24.04h2zm0-45.64h-2v-8.3h2zM881 1048.5h-1l1-.73zm-1 0h-1v-.73z"/><path d="M880 1102.45l-4.64-14.27h9.28z"/><path d="M881.05 1102.45h-2.1l-4.96-15.27h12zm-4.3-13.27l3.25 10.03 3.26-10.02z"/><g><use xlink:href="#n" transform="matrix(1,0,0,1,864.55,1056.8096135583316) translate(0 14.4)"/></g><path d="M880 1181.96v58.4" stroke="#000" stroke-width="2" fill="none"/><path/><path d="M880 1240.35l-4.64-14.27h9.28z"/><path d="M880.52 1242l-.52-.4-.52.4-5.5-16.92h12.03zm-3.78-14.92l3.26 10.03 3.26-10.02zM754.4 994.1H741v296.2h74v2h-76V992.1h15.4zm50.6 0h-17.65v-2H805zM805 993.1l1.35 1H805v-2h1.35z"/><path d="M815 1291.3l-14.27 4.64v-9.27z"/><path d="M815.97 1290.56l-.97.74.97.74-16.24 5.27v-12zm-14.24 4l10.03-3.26-10.03-3.26z"/><g><use xlink:href="#z" transform="matrix(1,0,0,1,754.3983120706722,982.3084337349397) translate(0 14.4)"/></g><path d="M971.6 1292.3H945v-2h26.6zm49.4 0h-18.5v-2h16.5V533H881v52.58h-2V531h142zM945 1292.3h-1.3l1.3-1-1.3-1h1.3z"/><path d="M880 585.58l-4.64-14.27h9.28z"/><path d="M881.05 585.58h-2.1L874 570.3h12zm-4.3-13.27l3.25 10.04 3.26-10.03z"/><g><use xlink:href="#n" transform="matrix(1,0,0,1,971.6023778216086,1280.501204819277) translate(0 14.4)"/></g><path d="M558 1440c17.67 0 32 13.43 32 30s-14.33 30-32 30h-96c-17.67 0-32-13.43-32-30s14.33-30 32-30z" stroke="#000" stroke-width="2" fill="#fff"/><g><use xlink:href="#D" transform="matrix(1,0,0,1,430,1440) translate(65.075 33.6)"/></g><path d="M510 1379.52V1440" stroke="#000" stroke-width="2" fill="none"/><path/><path d="M510 1440l-4.64-14.27h9.28z"/><path d="M511.05 1440h-2.1l-4.96-15.27h12zm-4.3-13.27l3.25 10.03 3.26-10.03zM811.3 1342H610.1v-2h201.2zm68.7 0h-35.75v-2H880zM883 1342h-3v-1l1.3-1h1.7z"/><path d="M624.37 1345.64L610.1 1341l14.27-4.64z"/><path d="M625.37 1347l-16.48-5.34.38-1.44 16.1-5.23zm-12.03-6l10.03 3.26v-6.52z"/><g><use xlink:href="#z" transform="matrix(1,0,0,1,811.3037777777779,1330.2) translate(0 14.4)"/></g><defs><path d="M33 0v-248h34V0H33" id="E"/><path d="M117-194c89-4 53 116 60 194h-32v-121c0-31-8-49-39-48C34-167 62-67 57 0H25l-1-190h30c1 10-1 24 2 32 11-22 29-35 61-36" id="F"/><path d="M34 0v-190h32V0H34zM24-211c8-23 27-35 38-54h36v5l-58 49H24" id="G"/><path d="M96-169c-40 0-48 33-48 73s9 75 48 75c24 0 41-14 43-38l32 2c-6 37-31 61-74 61-59 0-76-41-82-99-10-93 101-131 147-64 4 7 5 14 7 22l-32 3c-4-21-16-35-41-35" id="H"/><path d="M24-231v-30h32v30H24zM24 0v-190h32V0H24" id="I"/><path d="M100-194c62-1 85 37 85 99 1 63-27 99-86 99S16-35 15-95c0-66 28-99 85-99zM99-20c44 1 53-31 53-75 0-43-8-75-51-75s-53 32-53 75 10 74 51 75" id="J"/><g id="a"><use transform="matrix(0.05,0,0,0.05,0,0)" xlink:href="#E"/><use transform="matrix(0.05,0,0,0.05,5,0)" xlink:href="#F"/><use transform="matrix(0.05,0,0,0.05,15,0)" xlink:href="#G"/><use transform="matrix(0.05,0,0,0.05,20,0)" xlink:href="#H"/><use transform="matrix(0.05,0,0,0.05,29,0)" xlink:href="#I"/><use transform="matrix(0.05,0,0,0.05,32.95,0)" xlink:href="#J"/></g><path d="M30-248c87 1 191-15 191 75 0 78-77 80-158 76V0H30v-248zm33 125c57 0 124 11 124-50 0-59-68-47-124-48v98" id="K"/><path d="M100-194c63 0 86 42 84 106H49c0 40 14 67 53 68 26 1 43-12 49-29l28 8c-11 28-37 45-77 45C44 4 14-33 15-96c1-61 26-98 85-98zm52 81c6-60-76-77-97-28-3 7-6 17-6 28h103" id="L"/><path d="M85-194c31 0 48 13 60 33l-1-100h32l1 261h-30c-2-10 0-23-3-31C134-8 116 4 85 4 32 4 16-35 15-94c0-66 23-100 70-100zm9 24c-40 0-46 34-46 75 0 40 6 74 45 74 42 0 51-32 51-76 0-42-9-74-50-73" id="M"/><path d="M114-163C36-179 61-72 57 0H25l-1-190h30c1 12-1 29 2 39 6-27 23-49 58-41v29" id="N"/><g id="b"><use transform="matrix(0.05,0,0,0.05,0,0)" xlink:href="#K"/><use transform="matrix(0.05,0,0,0.05,12,0)" xlink:href="#L"/><use transform="matrix(0.05,0,0,0.05,22,0)" xlink:href="#M"/><use transform="matrix(0.05,0,0,0.05,32,0)" xlink:href="#I"/><use transform="matrix(0.05,0,0,0.05,35.95,0)" xlink:href="#N"/></g><path d="M66-252c43 0 62 25 61 69 0 43-19 69-62 69-41 0-60-27-60-69 0-43 19-69 61-69zm-1 119c29 0 36-19 36-50 0-30-5-50-34-50-30-1-36 21-36 50 0 28 6 50 34 50" id="O"/><g id="c"><use transform="matrix(0.05,0,0,0.05,0,0)" xlink:href="#F"/><use transform="matrix(0.05,0,0,0.05,10,0)" xlink:href="#O"/></g><g id="d"><use transform="matrix(0.05,0,0,0.05,0,0)" xlink:href="#M"/><use transform="matrix(0.05,0,0,0.05,10,0)" xlink:href="#L"/></g><path d="M115-194c55 1 70 41 70 98S169 2 115 4C84 4 66-9 55-30l1 105H24l-1-265h31l2 30c10-21 28-34 59-34zm-8 174c40 0 45-34 45-75s-6-73-45-74c-42 0-51 32-51 76 0 43 10 73 51 73" id="P"/><path d="M177-190C167-65 218 103 67 71c-23-6-38-20-44-43l32-5c15 47 100 32 89-28v-30C133-14 115 1 83 1 29 1 15-40 15-95c0-56 16-97 71-98 29-1 48 16 59 35 1-10 0-23 2-32h30zM94-22c36 0 50-32 50-73 0-42-14-75-50-75-39 0-46 34-46 75s6 73 46 73" id="Q"/><path d="M84 4C-5 8 30-112 23-190h32v120c0 31 7 50 39 49 72-2 45-101 50-169h31l1 190h-30c-1-10 1-25-2-33-11 22-28 36-60 37" id="R"/><path d="M59-47c-2 24 18 29 38 22v24C64 9 27 4 27-40v-127H5v-23h24l9-43h21v43h35v23H59v120" id="S"/><path d="M141-36C126-15 110 5 73 4 37 3 15-17 15-53c-1-64 63-63 125-63 3-35-9-54-41-54-24 1-41 7-42 31l-33-3c5-37 33-52 76-52 45 0 72 20 72 64v82c-1 20 7 32 28 27v20c-31 9-61-2-59-35zM48-53c0 20 12 33 32 33 41-3 63-29 60-74-43 2-92-5-92 41" id="T"/><path d="M135-143c-3-34-86-38-87 0 15 53 115 12 119 90S17 21 10-45l28-5c4 36 97 45 98 0-10-56-113-15-118-90-4-57 82-63 122-42 12 7 21 19 24 35" id="U"/><g id="e"><use transform="matrix(0.05,0,0,0.05,0,0)" xlink:href="#P"/><use transform="matrix(0.05,0,0,0.05,10,0)" xlink:href="#L"/><use transform="matrix(0.05,0,0,0.05,20,0)" xlink:href="#N"/><use transform="matrix(0.05,0,0,0.05,25.950000000000003,0)" xlink:href="#Q"/><use transform="matrix(0.05,0,0,0.05,35.95,0)" xlink:href="#R"/><use transform="matrix(0.05,0,0,0.05,45.95,0)" xlink:href="#F"/><use transform="matrix(0.05,0,0,0.05,55.95,0)" xlink:href="#S"/><use transform="matrix(0.05,0,0,0.05,60.95,0)" xlink:href="#T"/><use transform="matrix(0.05,0,0,0.05,70.95,0)" xlink:href="#U"/></g><path d="M87 75C49 33 22-17 22-94c0-76 28-126 65-167h31c-38 41-64 92-64 168S80 34 118 75H87" id="V"/><path d="M141 0L90-78 38 0H4l68-98-65-92h35l48 74 47-74h35l-64 92 68 98h-35" id="W"/><path d="M33-261c38 41 65 92 65 168S71 34 33 75H2C39 34 66-17 66-93S39-220 2-261h31" id="X"/><g id="f"><use transform="matrix(0.05,0,0,0.05,0,0)" xlink:href="#V"/><use transform="matrix(0.05,0,0,0.05,5.95,0)" xlink:href="#W"/><use transform="matrix(0.05,0,0,0.05,14.949999999999998,0)" xlink:href="#X"/></g><use transform="matrix(0.05,0,0,0.05,0,0)" xlink:href="#I" id="g"/><path d="M18-150v-26h174v26H18zm0 90v-26h174v26H18" id="Y"/><use transform="matrix(0.05,0,0,0.05,0,0)" xlink:href="#Y" id="h"/><path d="M27 0v-27h64v-190l-56 39v-29l58-41h29v221h61V0H27" id="Z"/><use transform="matrix(0.05,0,0,0.05,0,0)" xlink:href="#Z" id="i"/><path d="M18-100v-36l175-74v27L42-118l151 64v27" id="aa"/><g id="j"><use transform="matrix(0.05,0,0,0.05,0,0)" xlink:href="#aa"/><use transform="matrix(0.05,0,0,0.05,10.5,0)" xlink:href="#Y"/></g><path d="M103-251c84 0 111 97 45 133-19 10-37 24-39 52H78c0-63 77-55 77-114 0-30-21-42-52-43-32 0-53 17-56 46l-32-2c7-45 34-72 88-72zM77 0v-35h34V0H77" id="ab"/><g id="k"><use transform="matrix(0.05,0,0,0.05,0,0)" xlink:href="#W"/><use transform="matrix(0.05,0,0,0.05,9,0)" xlink:href="#ab"/></g><use transform="matrix(0.05,0,0,0.05,0,0)" xlink:href="#I" id="l"/><path d="M118-107v75H92v-75H18v-26h74v-75h26v75h74v26h-74" id="ac"/><use transform="matrix(0.05,0,0,0.05,0,0)" xlink:href="#ac" id="m"/><path d="M185-189c-5-48-123-54-124 2 14 75 158 14 163 119 3 78-121 87-175 55-17-10-28-26-33-46l33-7c5 56 141 63 141-1 0-78-155-14-162-118-5-82 145-84 179-34 5 7 8 16 11 25" id="ad"/><path d="M210-169c-67 3-38 105-44 169h-31v-121c0-29-5-50-35-48C34-165 62-65 56 0H25l-1-190h30c1 10-1 24 2 32 10-44 99-50 107 0 11-21 27-35 58-36 85-2 47 119 55 194h-31v-121c0-29-5-49-35-48" id="ae"/><g id="n"><use transform="matrix(0.05,0,0,0.05,0,0)" xlink:href="#ad"/><use transform="matrix(0.05,0,0,0.05,12,0)" xlink:href="#I"/><use transform="matrix(0.05,0,0,0.05,15.949999999999998,0)" xlink:href="#ae"/></g><g id="o"><use transform="matrix(0.05,0,0,0.05,0,0)" xlink:href="#K"/><use transform="matrix(0.05,0,0,0.05,12,0)" xlink:href="#L"/><use transform="matrix(0.05,0,0,0.05,22,0)" xlink:href="#N"/><use transform="matrix(0.05,0,0,0.05,27.950000000000003,0)" xlink:href="#Q"/><use transform="matrix(0.05,0,0,0.05,37.95,0)" xlink:href="#R"/><use transform="matrix(0.05,0,0,0.05,47.95,0)" xlink:href="#F"/><use transform="matrix(0.05,0,0,0.05,57.95,0)" xlink:href="#S"/><use transform="matrix(0.05,0,0,0.05,62.95,0)" xlink:href="#T"/></g><path d="M233-177c-1 41-23 64-60 70L243 0h-38l-65-103H63V0H30v-248c88 3 205-21 203 71zM63-129c60-2 137 13 137-47 0-61-80-42-137-45v92" id="af"/><g id="p"><use transform="matrix(0.05,0,0,0.05,0,0)" xlink:href="#af"/><use transform="matrix(0.05,0,0,0.05,12.950000000000001,0)" xlink:href="#T"/><use transform="matrix(0.05,0,0,0.05,22.950000000000003,0)" xlink:href="#F"/><use transform="matrix(0.05,0,0,0.05,32.95,0)" xlink:href="#M"/><use transform="matrix(0.05,0,0,0.05,42.95,0)" xlink:href="#J"/><use transform="matrix(0.05,0,0,0.05,52.95,0)" xlink:href="#ae"/></g><g id="q"><use transform="matrix(0.05,0,0,0.05,0,0)" xlink:href="#N"/><use transform="matrix(0.05,0,0,0.05,5.95,0)" xlink:href="#L"/><use transform="matrix(0.05,0,0,0.05,15.949999999999998,0)" xlink:href="#U"/><use transform="matrix(0.05,0,0,0.05,24.95,0)" xlink:href="#P"/><use transform="matrix(0.05,0,0,0.05,34.95,0)" xlink:href="#J"/><use transform="matrix(0.05,0,0,0.05,44.95,0)" xlink:href="#U"/><use transform="matrix(0.05,0,0,0.05,53.95,0)" xlink:href="#S"/><use transform="matrix(0.05,0,0,0.05,58.95,0)" xlink:href="#T"/></g><g id="r"><use transform="matrix(0.05,0,0,0.05,0,0)" xlink:href="#af"/><use transform="matrix(0.05,0,0,0.05,12.950000000000001,0)" xlink:href="#L"/><use transform="matrix(0.05,0,0,0.05,22.950000000000003,0)" xlink:href="#U"/><use transform="matrix(0.05,0,0,0.05,31.950000000000003,0)" xlink:href="#P"/><use transform="matrix(0.05,0,0,0.05,41.95,0)" xlink:href="#J"/><use transform="matrix(0.05,0,0,0.05,51.95,0)" xlink:href="#U"/><use transform="matrix(0.05,0,0,0.05,60.95,0)" xlink:href="#S"/><use transform="matrix(0.05,0,0,0.05,65.95,0)" xlink:href="#T"/></g><path d="M100-194c63 0 86 42 84 106H49c0 40 14 67 53 68 26 1 43-12 49-29l28 8c-11 28-37 45-77 45C44 4 14-33 15-96c1-61 26-98 85-98zm52 81c6-60-76-77-97-28-3 7-6 17-6 28h103zm-74-98c8-23 27-35 38-54h36v5l-58 49H78" id="ag"/><use transform="matrix(0.05,0,0,0.05,0,0)" xlink:href="#ag" id="s"/><g id="t"><use transform="matrix(0.05,0,0,0.05,0,0)" xlink:href="#H"/><use transform="matrix(0.05,0,0,0.05,9,0)" xlink:href="#J"/><use transform="matrix(0.05,0,0,0.05,19,0)" xlink:href="#N"/><use transform="matrix(0.05,0,0,0.05,24.95,0)" xlink:href="#N"/><use transform="matrix(0.05,0,0,0.05,30.899999999999995,0)" xlink:href="#L"/><use transform="matrix(0.05,0,0,0.05,40.9,0)" xlink:href="#S"/><use transform="matrix(0.05,0,0,0.05,45.9,0)" xlink:href="#T"/><use transform="matrix(0.05,0,0,0.05,55.900000000000006,0)" xlink:href="#ab"/></g><path d="M240 0l2-218c-23 76-54 145-80 218h-23L58-218 59 0H30v-248h44l77 211c21-75 51-140 76-211h43V0h-30" id="ah"/><g id="u"><use transform="matrix(0.05,0,0,0.05,0,0)" xlink:href="#ah"/><use transform="matrix(0.05,0,0,0.05,14.950000000000001,0)" xlink:href="#J"/><use transform="matrix(0.05,0,0,0.05,24.950000000000003,0)" xlink:href="#U"/><use transform="matrix(0.05,0,0,0.05,33.95,0)" xlink:href="#S"/><use transform="matrix(0.05,0,0,0.05,38.95,0)" xlink:href="#N"/><use transform="matrix(0.05,0,0,0.05,44.900000000000006,0)" xlink:href="#T"/><use transform="matrix(0.05,0,0,0.05,54.900000000000006,0)" xlink:href="#N"/></g><g id="v"><use transform="matrix(0.05,0,0,0.05,0,0)" xlink:href="#N"/><use transform="matrix(0.05,0,0,0.05,5.95,0)" xlink:href="#L"/><use transform="matrix(0.05,0,0,0.05,15.949999999999998,0)" xlink:href="#U"/><use transform="matrix(0.05,0,0,0.05,24.95,0)" xlink:href="#P"/><use transform="matrix(0.05,0,0,0.05,34.95,0)" xlink:href="#J"/><use transform="matrix(0.05,0,0,0.05,44.95,0)" xlink:href="#U"/><use transform="matrix(0.05,0,0,0.05,53.95,0)" xlink:href="#S"/><use transform="matrix(0.05,0,0,0.05,58.95,0)" xlink:href="#T"/><use transform="matrix(0.05,0,0,0.05,68.95,0)" xlink:href="#U"/></g><g id="w"><use transform="matrix(0.05,0,0,0.05,0,0)" xlink:href="#H"/><use transform="matrix(0.05,0,0,0.05,9,0)" xlink:href="#J"/><use transform="matrix(0.05,0,0,0.05,19,0)" xlink:href="#N"/><use transform="matrix(0.05,0,0,0.05,24.95,0)" xlink:href="#N"/><use transform="matrix(0.05,0,0,0.05,30.899999999999995,0)" xlink:href="#L"/><use transform="matrix(0.05,0,0,0.05,40.9,0)" xlink:href="#S"/><use transform="matrix(0.05,0,0,0.05,45.9,0)" xlink:href="#T"/><use transform="matrix(0.05,0,0,0.05,55.900000000000006,0)" xlink:href="#U"/></g><g id="x"><use transform="matrix(0.05,0,0,0.05,0,0)" xlink:href="#L"/><use transform="matrix(0.05,0,0,0.05,10,0)" xlink:href="#ae"/></g><use transform="matrix(0.05,0,0,0.05,0,0)" xlink:href="#W" id="y"/><path d="M190 0L58-211 59 0H30v-248h39L202-35l-2-213h31V0h-41" id="ai"/><path d="M141-36C126-15 110 5 73 4 37 3 15-17 15-53c-1-64 63-63 125-63 3-35-9-54-41-54-24 1-41 7-42 31l-33-3c5-37 33-52 76-52 45 0 72 20 72 64v82c-1 20 7 32 28 27v20c-31 9-61-2-59-35zM48-53c0 20 12 33 32 33 41-3 63-29 60-74-43 2-92-5-92 41zm117-205c-3 23-9 48-36 47-26-1-65-44-74 0H39c4-23 8-48 36-47s64 44 74 0h16" id="aj"/><g id="z"><use transform="matrix(0.05,0,0,0.05,0,0)" xlink:href="#ai"/><use transform="matrix(0.05,0,0,0.05,12.950000000000001,0)" xlink:href="#aj"/><use transform="matrix(0.05,0,0,0.05,22.950000000000003,0)" xlink:href="#J"/></g><g id="A"><use transform="matrix(0.05,0,0,0.05,0,0)" xlink:href="#N"/><use transform="matrix(0.05,0,0,0.05,5.95,0)" xlink:href="#L"/><use transform="matrix(0.05,0,0,0.05,15.949999999999998,0)" xlink:href="#U"/><use transform="matrix(0.05,0,0,0.05,24.95,0)" xlink:href="#P"/><use transform="matrix(0.05,0,0,0.05,34.95,0)" xlink:href="#J"/><use transform="matrix(0.05,0,0,0.05,44.95,0)" xlink:href="#U"/><use transform="matrix(0.05,0,0,0.05,53.95,0)" xlink:href="#S"/><use transform="matrix(0.05,0,0,0.05,58.95,0)" xlink:href="#T"/><use transform="matrix(0.05,0,0,0.05,68.95,0)" xlink:href="#U"/></g><use transform="matrix(0.05,0,0,0.05,0,0)" xlink:href="#Y" id="B"/><g id="C"><use transform="matrix(0.05,0,0,0.05,0,0)" xlink:href="#N"/><use transform="matrix(0.05,0,0,0.05,5.95,0)" xlink:href="#L"/><use transform="matrix(0.05,0,0,0.05,15.949999999999998,0)" xlink:href="#U"/><use transform="matrix(0.05,0,0,0.05,24.95,0)" xlink:href="#P"/><use transform="matrix(0.05,0,0,0.05,34.95,0)" xlink:href="#J"/><use transform="matrix(0.05,0,0,0.05,44.95,0)" xlink:href="#U"/><use transform="matrix(0.05,0,0,0.05,53.95,0)" xlink:href="#S"/><use transform="matrix(0.05,0,0,0.05,58.95,0)" xlink:href="#T"/><use transform="matrix(0.05,0,0,0.05,68.95,0)" xlink:href="#U"/></g><path d="M63-220v92h138v28H63V0H30v-248h175v28H63" id="ak"/><g id="D"><use transform="matrix(0.05,0,0,0.05,0,0)" xlink:href="#ak"/><use transform="matrix(0.05,0,0,0.05,10.950000000000001,0)" xlink:href="#I"/><use transform="matrix(0.05,0,0,0.05,14.9,0)" xlink:href="#ae"/></g></defs></g></svg>