<svg xmlns="http://www.w3.org/2000/svg" xmlns:xlink="http://www.w3.org/1999/xlink" xmlns:lucid="lucid" width="1760" height="1360"><g transform="translate(0 0)" lucid:page-tab-id="0_0"><path d="M0 0h1760v1360H0z" fill="#fff"/><path d="M809.33 176H948l-21.33 80H788z" stroke="#000" stroke-width="2" fill="#fff"/><use xlink:href="#a" transform="matrix(1,0,0,1,788,176) translate(12.125 32.8)"/><use xlink:href="#b" transform="matrix(1,0,0,1,788,176) translate(59.025000000000006 32.8)"/><use xlink:href="#c" transform="matrix(1,0,0,1,788,176) translate(127.87500000000001 32.8)"/><use xlink:href="#d" transform="matrix(1,0,0,1,788,176) translate(16.299999999999997 54.4)"/><use xlink:href="#e" transform="matrix(1,0,0,1,788,176) translate(103.25 54.4)"/><use xlink:href="#f" transform="matrix(1,0,0,1,788,176) translate(118.75 54.4)"/><path d="M868 256v40" stroke="#000" stroke-width="2" fill="none"/><path/><path d="M868 296l-4.64-14.27h9.28z"/><path d="M868.9 296.45l-.9-.45-.9.45-5.1-15.72h12zm-4.16-13.72l3.26 10.03 3.26-10.03z"/><path d="M868 296l80 40-80 40-80-40z" stroke="#000" stroke-width="2" fill="#fff"/><use xlink:href="#g" transform="matrix(1,0,0,1,788,296) translate(67.525 43.6)"/><path d="M869 436h-2v-23.2h2zm0-44.8h-2V376h2zM869 376h-1l1-.5zm-1 0h-1v-.5z"/><path d="M868 436l-4.64-14.27h9.28z"/><path d="M869.05 436h-2.1L862 420.73h12zm-4.3-13.27l3.25 10.03 3.26-10.03z"/><use xlink:href="#h" transform="matrix(1,0,0,1,814.525,391.2) translate(0 14.4)"/><path d="M788 436h160v80H788z" stroke="#000" stroke-width="2" fill="#fff"/><use xlink:href="#i" transform="matrix(1,0,0,1,788,436.00000000000006) translate(34.55 22)"/><use xlink:href="#c" transform="matrix(1,0,0,1,788,436.00000000000006) translate(105.45 22)"/><use xlink:href="#j" transform="matrix(1,0,0,1,788,436.00000000000006) translate(3.625 43.6)"/><use xlink:href="#k" transform="matrix(1,0,0,1,788,436.00000000000006) translate(78.525 43.6)"/><use xlink:href="#l" transform="matrix(1,0,0,1,788,436.00000000000006) translate(37.025 65.2)"/><use xlink:href="#m" transform="matrix(1,0,0,1,788,436.00000000000006) translate(82.975 65.2)"/><use xlink:href="#n" transform="matrix(1,0,0,1,788,436.00000000000006) translate(97.975 65.2)"/><use xlink:href="#o" transform="matrix(1,0,0,1,788,436.00000000000006) translate(112.975 65.2)"/><path d="M689.33 636H828l-21.33 80H668z" stroke="#000" stroke-width="2" fill="#fff"/><use xlink:href="#p" transform="matrix(1,0,0,1,668,636) translate(21.599999999999994 22)"/><use xlink:href="#q" transform="matrix(1,0,0,1,668,636) translate(99.5 22)"/><use xlink:href="#r" transform="matrix(1,0,0,1,668,636) translate(11.074999999999989 43.6)"/><use xlink:href="#s" transform="matrix(1,0,0,1,668,636) translate(84.925 43.6)"/><use xlink:href="#t" transform="matrix(1,0,0,1,668,636) translate(128.925 43.6)"/><use xlink:href="#u" transform="matrix(1,0,0,1,668,636) translate(32.525 65.2)"/><use xlink:href="#s" transform="matrix(1,0,0,1,668,636) translate(73.475 65.2)"/><use xlink:href="#v" transform="matrix(1,0,0,1,668,636) translate(117.475 65.2)"/><path d="M929.33 636H1068l-21.33 80H908z" stroke="#000" stroke-width="2" fill="#fff"/><use xlink:href="#p" transform="matrix(1,0,0,1,908,636) translate(21.599999999999994 22)"/><use xlink:href="#q" transform="matrix(1,0,0,1,908,636) translate(99.5 22)"/><use xlink:href="#r" transform="matrix(1,0,0,1,908,636) translate(11.074999999999989 43.6)"/><use xlink:href="#s" transform="matrix(1,0,0,1,908,636) translate(84.925 43.6)"/><use xlink:href="#t" transform="matrix(1,0,0,1,908,636) translate(128.925 43.6)"/><use xlink:href="#u" transform="matrix(1,0,0,1,908,636) translate(27.525 65.2)"/><use xlink:href="#s" transform="matrix(1,0,0,1,908,636) translate(68.475 65.2)"/><use xlink:href="#w" transform="matrix(1,0,0,1,908,636) translate(112.475 65.2)"/><path d="M449.33 636H588l-21.33 80H428z" stroke="#000" stroke-width="2" fill="#fff"/><use xlink:href="#p" transform="matrix(1,0,0,1,428,636) translate(21.599999999999994 22)"/><use xlink:href="#q" transform="matrix(1,0,0,1,428,636) translate(99.5 22)"/><use xlink:href="#r" transform="matrix(1,0,0,1,428,636) translate(16.074999999999996 43.6)"/><use xlink:href="#s" transform="matrix(1,0,0,1,428,636) translate(89.92500000000001 43.6)"/><use xlink:href="#x" transform="matrix(1,0,0,1,428,636) translate(133.925 43.6)"/><use xlink:href="#u" transform="matrix(1,0,0,1,428,636) translate(27.525 65.2)"/><use xlink:href="#s" transform="matrix(1,0,0,1,428,636) translate(68.475 65.2)"/><use xlink:href="#w" transform="matrix(1,0,0,1,428,636) translate(112.475 65.2)"/><path d="M201.33 636H340l-21.33 80H180z" stroke="#000" stroke-width="2" fill="#fff"/><use xlink:href="#p" transform="matrix(1,0,0,1,180,636) translate(21.599999999999994 22)"/><use xlink:href="#q" transform="matrix(1,0,0,1,180,636) translate(99.5 22)"/><use xlink:href="#r" transform="matrix(1,0,0,1,180,636) translate(16.074999999999996 43.6)"/><use xlink:href="#s" transform="matrix(1,0,0,1,180,636) translate(89.92500000000001 43.6)"/><use xlink:href="#x" transform="matrix(1,0,0,1,180,636) translate(133.925 43.6)"/><use xlink:href="#u" transform="matrix(1,0,0,1,180,636) translate(27.525 65.2)"/><use xlink:href="#s" transform="matrix(1,0,0,1,180,636) translate(68.475 65.2)"/><use xlink:href="#y" transform="matrix(1,0,0,1,180,636) translate(112.475 65.2)"/><path d="M1169.33 636H1308l-21.33 80H1148z" stroke="#000" stroke-width="2" fill="#fff"/><use xlink:href="#p" transform="matrix(1,0,0,1,1148,636) translate(21.599999999999994 22)"/><use xlink:href="#q" transform="matrix(1,0,0,1,1148,636) translate(99.5 22)"/><use xlink:href="#r" transform="matrix(1,0,0,1,1148,636) translate(11.074999999999989 43.6)"/><use xlink:href="#s" transform="matrix(1,0,0,1,1148,636) translate(84.925 43.6)"/><use xlink:href="#z" transform="matrix(1,0,0,1,1148,636) translate(128.925 43.6)"/><use xlink:href="#u" transform="matrix(1,0,0,1,1148,636) translate(32.525 65.2)"/><use xlink:href="#s" transform="matrix(1,0,0,1,1148,636) translate(73.475 65.2)"/><use xlink:href="#v" transform="matrix(1,0,0,1,1148,636) translate(117.475 65.2)"/><path d="M1409.33 636H1548l-21.33 80H1388z" stroke="#000" stroke-width="2" fill="#fff"/><use xlink:href="#p" transform="matrix(1,0,0,1,1388,636) translate(21.599999999999994 22)"/><use xlink:href="#q" transform="matrix(1,0,0,1,1388,636) translate(99.5 22)"/><use xlink:href="#r" transform="matrix(1,0,0,1,1388,636) translate(11.074999999999989 43.6)"/><use xlink:href="#s" transform="matrix(1,0,0,1,1388,636) translate(84.925 43.6)"/><use xlink:href="#z" transform="matrix(1,0,0,1,1388,636) translate(128.925 43.6)"/><use xlink:href="#u" transform="matrix(1,0,0,1,1388,636) translate(27.525 65.2)"/><use xlink:href="#s" transform="matrix(1,0,0,1,1388,636) translate(68.475 65.2)"/><use xlink:href="#y" transform="matrix(1,0,0,1,1388,636) translate(112.475 65.2)"/><path d="M261 636h-2v-20.94h2zm608-99H261v56.46h-2V535h608v-19h2z"/><path/><path d="M260 636l-4.64-14.27h9.28z"/><path d="M261.05 636h-2.1L254 620.73h12zm-4.3-13.27l3.25 10.03 3.26-10.03z"/><use xlink:href="#A" transform="matrix(1,0,0,1,255,593.4558139534885) translate(0 14.4)"/><path d="M509 636h-2v-21.93h2zm360-99H509v55.47h-2V535h360v-19h2z"/><path/><path d="M508 636l-4.64-14.27h9.28z"/><path d="M509.05 636h-2.1L502 620.73h12zm-4.3-13.27l3.25 10.03 3.26-10.03z"/><use xlink:href="#B" transform="matrix(1,0,0,1,503,592.4727272727273) translate(0 14.4)"/><path d="M749 636h-2v-24h2zm120-99H749v53.4h-2V535h120v-19h2z"/><path/><path d="M748 636l-4.64-14.27h9.28z"/><path d="M749.05 636h-2.1L742 620.73h12zm-4.3-13.27l3.25 10.03 3.26-10.03z"/><use xlink:href="#C" transform="matrix(1,0,0,1,743,590.4000000000001) translate(0 14.4)"/><path d="M989 636h-2v-24h2zM869 535h120v55.4h-2V537H867v-21h2z"/><path/><path d="M988 636l-4.64-14.27h9.28z"/><path d="M989.05 636h-2.1L982 620.73h12zm-4.3-13.27l3.25 10.03 3.26-10.03z"/><use xlink:href="#D" transform="matrix(1,0,0,1,983,590.4000000000001) translate(0 14.4)"/><path d="M1229 636h-2v-23.02h2zM869 535h360v56.38h-2V537H867v-21h2z"/><path/><path d="M1228 636l-4.64-14.27h9.28z"/><path d="M1229.05 636h-2.1l-4.96-15.27h12zm-4.3-13.27l3.25 10.03 3.26-10.03z"/><use xlink:href="#E" transform="matrix(1,0,0,1,1223,591.3818181818183) translate(0 14.4)"/><path d="M1469 636h-2v-24.14h2zM869 535h600v55.26h-2V537H867v-21h2z"/><path/><path d="M1468 636l-4.64-14.27h9.28z"/><path d="M1469.05 636h-2.1l-4.96-15.27h12zm-4.3-13.27l3.25 10.03 3.26-10.03z"/><use xlink:href="#F" transform="matrix(1,0,0,1,1463,590.2588235294118) translate(0 14.4)"/><path d="M1028 916h160v80h-160z" stroke="#000" stroke-width="2" fill="#fff"/><path d="M1044 916v80m128-80v80" stroke="#000" stroke-width="2" fill="none"/><use xlink:href="#G" transform="matrix(1,0,0,1,1048,916) translate(1.75 43.6)"/><use xlink:href="#H" transform="matrix(1,0,0,1,1048,916) translate(92.75 43.6)"/><use xlink:href="#I" transform="matrix(1,0,0,1,1048,916) translate(108.25 43.6)"/><path d="M1109 916h-2v-26.53h2zM261 815h848v52.87h-2V817H259V716h2z"/><path/><path d="M1108 916l-4.64-14.27h9.28z"/><path d="M1109.05 916h-2.1l-4.96-15.27h12zm-4.3-13.27l3.25 10.03 3.26-10.03z"/><path d="M1109 916h-2v-26.53h2zM749 815h360v52.87h-2V817H747V716h2z"/><path/><path d="M1108 916l-4.64-14.27h9.28z"/><path d="M1109.05 916h-2.1l-4.96-15.27h12zm-4.3-13.27l3.25 10.03 3.26-10.03z"/><path d="M1109 916h-2v-26.53h2zM989 815h120v52.87h-2V817H987V716h2z"/><path/><path d="M1108 916l-4.64-14.27h9.28z"/><path d="M1109.05 916h-2.1l-4.96-15.27h12zm-4.3-13.27l3.25 10.03 3.26-10.03z"/><use xlink:href="#J" transform="matrix(1,0,0,1,1078.075,867.8666666666667) translate(0 14.4)"/><path d="M1109 916h-2v-26.53h2zM509 815h600v52.87h-2V817H507V716h2z"/><path/><path d="M1108 916l-4.64-14.27h9.28z"/><path d="M1109.05 916h-2.1l-4.96-15.27h12zm-4.3-13.27l3.25 10.03 3.26-10.03z"/><path d="M1109 916h-2v-26.53h2zm120-99h-120v50.87h-2V815h120v-99h2z"/><path/><path d="M1108 916l-4.64-14.27h9.28z"/><path d="M1109.05 916h-2.1l-4.96-15.27h12zm-4.3-13.27l3.25 10.03 3.26-10.03z"/><path d="M1109 916h-2v-26.53h2zm360-99h-360v50.87h-2V815h360v-99h2z"/><path/><path d="M1108 916l-4.64-14.27h9.28z"/><path d="M1109.05 916h-2.1l-4.96-15.27h12zm-4.3-13.27l3.25 10.03 3.26-10.03zM625.4 955H748v2H623.4v-65.5h2zm0-85.1h-2V816h2z"/><path d="M748 956l-14.27 4.64v-9.28z"/><path d="M748 954.95v2.1L732.73 962v-12zm-13.27 4.3l10.03-3.25-10.03-3.26z"/><g><use xlink:href="#K" transform="matrix(1,0,0,1,597.4415343915344,869.9123002987401) translate(0 14.4)"/></g><path d="M1028 956h-40" stroke="#000" stroke-width="2" fill="none"/><path/><path d="M1002.27 960.64L988 956l14.27-4.64z"/><path d="M1003.27 962L988 957.06v-2.1l15.27-4.96zm-12.03-6l10.03 3.26v-6.52z"/><path d="M1268 276c-8.84 0-16 17.9-16 40s7.16 40 16 40h-144c-8.84 0-16-17.9-16-40s7.16-40 16-40z" stroke="#000" stroke-width="2" fill="#fff"/><g><use xlink:href="#G" transform="matrix(1,0,0,1,1108,276) translate(21.75 43.6)"/><use xlink:href="#e" transform="matrix(1,0,0,1,1108,276) translate(112.75 43.6)"/><use xlink:href="#L" transform="matrix(1,0,0,1,1108,276) translate(128.25 43.6)"/></g><path d="M1589 1105H963v-49.72h2V1103h622V477H948v-2h641zm-624-71.32h-2V997h2z"/><path d="M965 997h-2v-1h2zM962.27 480.64L948 476l14.27-4.64z"/><path d="M963.27 482L948 477.06v-2.1l15.27-4.96zm-12.03-6l10.03 3.26v-6.52z"/><g><use xlink:href="#M" transform="matrix(1,0,0,1,901.825,1033.6798836645662) translate(0 14.4)"/><use xlink:href="#N" transform="matrix(1,0,0,1,901.825,1033.6798836645662) translate(78.9 14.4)"/><use xlink:href="#f" transform="matrix(1,0,0,1,901.825,1033.6798836645662) translate(99.4 14.4)"/></g><path d="M748 916h240v80H748z" stroke="#000" stroke-width="2" fill="#fff"/><path d="M772 916v80m192-80v80" stroke="#000" stroke-width="2" fill="none"/><g><use xlink:href="#M" transform="matrix(1,0,0,1,778,916) translate(37.8 43.6)"/><use xlink:href="#H" transform="matrix(1,0,0,1,778,916) translate(116.7 43.6)"/><use xlink:href="#I" transform="matrix(1,0,0,1,778,916) translate(132.2 43.6)"/></g><path d="M1508 276c-8.84 0-16 17.9-16 40s7.16 40 16 40h-144c-8.84 0-16-17.9-16-40s7.16-40 16-40z" stroke="#000" stroke-width="2" fill="#fff"/><g><use xlink:href="#M" transform="matrix(1,0,0,1,1348,276) translate(27.799999999999997 43.6)"/><use xlink:href="#e" transform="matrix(1,0,0,1,1348,276) translate(106.7 43.6)"/><use xlink:href="#L" transform="matrix(1,0,0,1,1348,276) translate(122.2 43.6)"/></g><path d="M684 1104h196c15.46 0 28 19.34 28 43.2 0 23.86-12.54 43.2-28 43.2H684l-56-43.2z" stroke="#000" stroke-width="2" fill="#fff"/><g><use xlink:href="#O" transform="matrix(1,0,0,1,628,1104) translate(17.124999999999986 36.3)"/><use xlink:href="#P" transform="matrix(1,0,0,1,628,1104) translate(32.124999999999986 36.3)"/><use xlink:href="#Q" transform="matrix(1,0,0,1,628,1104) translate(97.975 36.3)"/><use xlink:href="#n" transform="matrix(1,0,0,1,628,1104) translate(186.97500000000002 36.3)"/><use xlink:href="#R" transform="matrix(1,0,0,1,628,1104) translate(201.97500000000002 36.3)"/><use xlink:href="#S" transform="matrix(1,0,0,1,628,1104) translate(68.05 57.9)"/><use xlink:href="#T" transform="matrix(1,0,0,1,628,1104) translate(107 57.9)"/><use xlink:href="#U" transform="matrix(1,0,0,1,628,1104) translate(132 57.9)"/></g><path d="M773 1104h-2v-48.46h2zm0-70.06h-2V997h2zM773 997h-2v-1h2z"/><path d="M772 1104l-4.64-14.27h9.28z"/><path d="M773.05 1104h-2.1l-4.96-15.27h12zm-4.3-13.27l3.25 10.03 3.26-10.03z"/><g><use xlink:href="#M" transform="matrix(1,0,0,1,712.325,1033.943670886076) translate(0 14.4)"/><use xlink:href="#e" transform="matrix(1,0,0,1,712.325,1033.943670886076) translate(78.9 14.4)"/><use xlink:href="#f" transform="matrix(1,0,0,1,712.325,1033.943670886076) translate(94.4 14.4)"/></g><path d="M768 1190.4v33.6" stroke="#000" stroke-width="2" fill="none"/><path/><path d="M768 1224l-4.64-14.27h9.28z"/><path d="M769.05 1224h-2.1l-4.96-15.27h12zm-4.3-13.27l3.25 10.03 3.26-10.03zM989 337h-41v-2h39v-53.53h2zm0-77.13h-2V217h-49.67v-2H989zM948 337h-2l2-1-2-1h2z"/><path d="M951.6 220.64L937.33 216l14.27-4.64z"/><path d="M952.6 222l-15.52-5.03.56-2.12L952.6 210zm-12.03-6l10.03 3.26v-6.52z"/><g><use xlink:href="#V" transform="matrix(1,0,0,1,950.025,259.8666666666667) translate(0 14.4)"/></g><path d="M749 335h39v2h-41v-55.53h2zm49.67-118H749v42.87h-2V215h51.67zM788 336l2 1h-2v-2h2z"/><path d="M798.67 216l-14.27 4.64v-9.28z"/><path d="M798.92 215.03l-.56 2.12L783.4 222v-12zm-13.52 4.23l10.03-3.26-10.03-3.26z"/><g><use xlink:href="#W" transform="matrix(1,0,0,1,720.025,259.8666666666667) translate(0 14.4)"/></g><path d="M916 56c17.67 0 32 17.9 32 40s-14.33 40-32 40h-96c-17.67 0-32-17.9-32-40s14.33-40 32-40z" stroke="#000" stroke-width="2" fill="#fff"/><g><use xlink:href="#X" transform="matrix(1,0,0,1,788,56) translate(52.55 43.6)"/></g><path d="M868 136v39" stroke="#000" stroke-width="2" fill="none"/><path/><path d="M868 175l-4.64-14.27h9.28z"/><path d="M868.73 176h-1.46L862 159.73h12zm-4-14.27l3.27 10.03 3.26-10.03z"/><path d="M816 1224c17.67 0 32 17.9 32 40s-14.33 40-32 40h-96c-17.67 0-32-17.9-32-40s14.33-40 32-40z" stroke="#000" stroke-width="2" fill="#fff"/><g><use xlink:href="#Y" transform="matrix(1,0,0,1,688,1224) translate(64.55 43.6)"/></g><path d="M111 1263h577v2H109V413.47h2zm677-926H111v54.87h-2V335h679zM788 336l2 1h-2v-2h2z"/><path d="M688 1264l-14.27 4.64v-9.28z"/><path d="M688.06 1262.97L688 1264l.04 1.04-15.3 4.97v-12zm-13.33 4.3l10.03-3.27-10.03-3.26z"/><g><use xlink:href="#Z" transform="matrix(1,0,0,1,53.02499999999999,391.86666666666673) translate(0 14.4)"/><use xlink:href="#aa" transform="matrix(1,0,0,1,53.02499999999999,391.86666666666673) translate(29.6 14.4)"/><use xlink:href="#ab" transform="matrix(1,0,0,1,53.02499999999999,391.86666666666673) translate(50.1 14.4)"/></g><defs><path d="M30-248c87 1 191-15 191 75 0 78-77 80-158 76V0H30v-248zm33 125c57 0 124 11 124-50 0-59-68-47-124-48v98" id="ac"/><path d="M100-194c63 0 86 42 84 106H49c0 40 14 67 53 68 26 1 43-12 49-29l28 8c-11 28-37 45-77 45C44 4 14-33 15-96c1-61 26-98 85-98zm52 81c6-60-76-77-97-28-3 7-6 17-6 28h103" id="ad"/><path d="M85-194c31 0 48 13 60 33l-1-100h32l1 261h-30c-2-10 0-23-3-31C134-8 116 4 85 4 32 4 16-35 15-94c0-66 23-100 70-100zm9 24c-40 0-46 34-46 75 0 40 6 74 45 74 42 0 51-32 51-76 0-42-9-74-50-73" id="ae"/><path d="M24-231v-30h32v30H24zM24 0v-190h32V0H24" id="af"/><path d="M114-163C36-179 61-72 57 0H25l-1-190h30c1 12-1 29 2 39 6-27 23-49 58-41v29" id="ag"/><g id="a"><use transform="matrix(0.05,0,0,0.05,0,0)" xlink:href="#ac"/><use transform="matrix(0.05,0,0,0.05,12,0)" xlink:href="#ad"/><use transform="matrix(0.05,0,0,0.05,22,0)" xlink:href="#ae"/><use transform="matrix(0.05,0,0,0.05,32,0)" xlink:href="#af"/><use transform="matrix(0.05,0,0,0.05,35.95,0)" xlink:href="#ag"/></g><path d="M190 0L58-211 59 0H30v-248h39L202-35l-2-213h31V0h-41" id="ah"/><path d="M85 4C-4 8 31-112 24-190h32v120c0 31 7 50 39 49 72-2 45-101 50-169h31l1 190h-30c-1-10 1-25-2-33-11 22-28 36-60 37zM73-211c8-23 27-35 38-54h36v5l-58 49H73" id="ai"/><path d="M210-169c-67 3-38 105-44 169h-31v-121c0-29-5-50-35-48C34-165 62-65 56 0H25l-1-190h30c1 10-1 24 2 32 10-44 99-50 107 0 11-21 27-35 58-36 85-2 47 119 55 194h-31v-121c0-29-5-49-35-48" id="aj"/><path d="M100-194c62-1 85 37 85 99 1 63-27 99-86 99S16-35 15-95c0-66 28-99 85-99zM99-20c44 1 53-31 53-75 0-43-8-75-51-75s-53 32-53 75 10 74 51 75" id="ak"/><g id="b"><use transform="matrix(0.05,0,0,0.05,0,0)" xlink:href="#ah"/><use transform="matrix(0.05,0,0,0.05,12.950000000000001,0)" xlink:href="#ai"/><use transform="matrix(0.05,0,0,0.05,22.950000000000003,0)" xlink:href="#aj"/><use transform="matrix(0.05,0,0,0.05,37.900000000000006,0)" xlink:href="#ad"/><use transform="matrix(0.05,0,0,0.05,47.900000000000006,0)" xlink:href="#ag"/><use transform="matrix(0.05,0,0,0.05,53.85,0)" xlink:href="#ak"/></g><g id="c"><use transform="matrix(0.05,0,0,0.05,0,0)" xlink:href="#ae"/><use transform="matrix(0.05,0,0,0.05,10,0)" xlink:href="#ad"/></g><path d="M177-190C167-65 218 103 67 71c-23-6-38-20-44-43l32-5c15 47 100 32 89-28v-30C133-14 115 1 83 1 29 1 15-40 15-95c0-56 16-97 71-98 29-1 48 16 59 35 1-10 0-23 2-32h30zM94-22c36 0 50-32 50-73 0-42-14-75-50-75-39 0-46 34-46 75s6 73 46 73" id="al"/><path d="M84 4C-5 8 30-112 23-190h32v120c0 31 7 50 39 49 72-2 45-101 50-169h31l1 190h-30c-1-10 1-25-2-33-11 22-28 36-60 37" id="am"/><path d="M117-194c89-4 53 116 60 194h-32v-121c0-31-8-49-39-48C34-167 62-67 57 0H25l-1-190h30c1 10-1 24 2 32 11-22 29-35 61-36" id="an"/><path d="M59-47c-2 24 18 29 38 22v24C64 9 27 4 27-40v-127H5v-23h24l9-43h21v43h35v23H59v120" id="ao"/><path d="M141-36C126-15 110 5 73 4 37 3 15-17 15-53c-1-64 63-63 125-63 3-35-9-54-41-54-24 1-41 7-42 31l-33-3c5-37 33-52 76-52 45 0 72 20 72 64v82c-1 20 7 32 28 27v20c-31 9-61-2-59-35zM48-53c0 20 12 33 32 33 41-3 63-29 60-74-43 2-92-5-92 41" id="ap"/><path d="M135-143c-3-34-86-38-87 0 15 53 115 12 119 90S17 21 10-45l28-5c4 36 97 45 98 0-10-56-113-15-118-90-4-57 82-63 122-42 12 7 21 19 24 35" id="aq"/><g id="d"><use transform="matrix(0.05,0,0,0.05,0,0)" xlink:href="#ac"/><use transform="matrix(0.05,0,0,0.05,12,0)" xlink:href="#ad"/><use transform="matrix(0.05,0,0,0.05,22,0)" xlink:href="#ag"/><use transform="matrix(0.05,0,0,0.05,27.950000000000003,0)" xlink:href="#al"/><use transform="matrix(0.05,0,0,0.05,37.95,0)" xlink:href="#am"/><use transform="matrix(0.05,0,0,0.05,47.95,0)" xlink:href="#an"/><use transform="matrix(0.05,0,0,0.05,57.95,0)" xlink:href="#ao"/><use transform="matrix(0.05,0,0,0.05,62.95,0)" xlink:href="#ap"/><use transform="matrix(0.05,0,0,0.05,72.95,0)" xlink:href="#aq"/></g><path d="M18-150v-26h174v26H18zm0 90v-26h174v26H18" id="ar"/><use transform="matrix(0.05,0,0,0.05,0,0)" xlink:href="#ar" id="e"/><g id="f"><use transform="matrix(0.05,0,0,0.05,0,0)" xlink:href="#ah"/><use transform="matrix(0.05,0,0,0.05,12.950000000000001,0)" xlink:href="#ac"/></g><g id="g"><use transform="matrix(0.05,0,0,0.05,0,0)" xlink:href="#ah"/><use transform="matrix(0.05,0,0,0.05,12.950000000000001,0)" xlink:href="#ac"/></g><path d="M27 0v-27h64v-190l-56 39v-29l58-41h29v221h61V0H27" id="as"/><path d="M18-100v-36l175-74v27L42-118l151 64v27" id="at"/><path d="M101-251c82-7 93 87 43 132L82-64C71-53 59-42 53-27h129V0H18c2-99 128-94 128-182 0-28-16-43-45-43s-46 15-49 41l-32-3c6-41 34-60 81-64" id="au"/><path d="M54-142c48-35 137-8 131 61C196 18 31 33 14-55l32-4c7 23 22 37 52 37 35-1 51-22 54-58 4-55-73-65-99-34H22l8-134h141v27H59" id="av"/><g id="h"><use transform="matrix(0.05,0,0,0.05,0,0)" xlink:href="#as"/><use transform="matrix(0.05,0,0,0.05,10,0)" xlink:href="#at"/><use transform="matrix(0.05,0,0,0.05,20.5,0)" xlink:href="#ar"/><use transform="matrix(0.05,0,0,0.05,31,0)" xlink:href="#ah"/><use transform="matrix(0.05,0,0,0.05,43.95,0)" xlink:href="#ac"/><use transform="matrix(0.05,0,0,0.05,55.95,0)" xlink:href="#at"/><use transform="matrix(0.05,0,0,0.05,66.45,0)" xlink:href="#ar"/><use transform="matrix(0.05,0,0,0.05,76.95,0)" xlink:href="#au"/><use transform="matrix(0.05,0,0,0.05,86.95,0)" xlink:href="#av"/><use transform="matrix(0.05,0,0,0.05,96.95,0)" xlink:href="#av"/></g><path d="M143 4C61 4 22-44 18-125c-5-107 100-154 193-111 17 8 29 25 37 43l-32 9c-13-25-37-40-76-40-61 0-88 39-88 99 0 61 29 100 91 101 35 0 62-11 79-27v-45h-74v-28h105v86C228-13 192 4 143 4" id="aw"/><g id="i"><use transform="matrix(0.05,0,0,0.05,0,0)" xlink:href="#aw"/><use transform="matrix(0.05,0,0,0.05,14,0)" xlink:href="#ad"/><use transform="matrix(0.05,0,0,0.05,24,0)" xlink:href="#ag"/><use transform="matrix(0.05,0,0,0.05,29.950000000000003,0)" xlink:href="#ap"/><use transform="matrix(0.05,0,0,0.05,39.95,0)" xlink:href="#ae"/><use transform="matrix(0.05,0,0,0.05,49.95,0)" xlink:href="#ak"/><use transform="matrix(0.05,0,0,0.05,59.95,0)" xlink:href="#ag"/></g><g id="j"><use transform="matrix(0.05,0,0,0.05,0,0)" xlink:href="#an"/><use transform="matrix(0.05,0,0,0.05,10,0)" xlink:href="#ai"/><use transform="matrix(0.05,0,0,0.05,20,0)" xlink:href="#aj"/><use transform="matrix(0.05,0,0,0.05,34.95,0)" xlink:href="#ad"/><use transform="matrix(0.05,0,0,0.05,44.95,0)" xlink:href="#ag"/><use transform="matrix(0.05,0,0,0.05,50.900000000000006,0)" xlink:href="#ak"/><use transform="matrix(0.05,0,0,0.05,60.900000000000006,0)" xlink:href="#aq"/></g><path d="M24 0v-261h32V0H24" id="ax"/><path d="M100-194c62-1 85 37 85 99 1 63-27 99-86 99S16-35 15-95c0-66 28-99 85-99zM99-20c44 1 53-31 53-75 0-43-8-75-51-75s-53 32-53 75 10 74 51 75zM76-211c8-23 27-35 38-54h36v5l-58 49H76" id="ay"/><g id="k"><use transform="matrix(0.05,0,0,0.05,0,0)" xlink:href="#ap"/><use transform="matrix(0.05,0,0,0.05,10,0)" xlink:href="#ax"/><use transform="matrix(0.05,0,0,0.05,13.949999999999998,0)" xlink:href="#ad"/><use transform="matrix(0.05,0,0,0.05,23.95,0)" xlink:href="#ap"/><use transform="matrix(0.05,0,0,0.05,33.95,0)" xlink:href="#ao"/><use transform="matrix(0.05,0,0,0.05,38.95,0)" xlink:href="#ay"/><use transform="matrix(0.05,0,0,0.05,48.95,0)" xlink:href="#ag"/><use transform="matrix(0.05,0,0,0.05,54.900000000000006,0)" xlink:href="#af"/><use transform="matrix(0.05,0,0,0.05,58.85,0)" xlink:href="#ak"/><use transform="matrix(0.05,0,0,0.05,68.85000000000001,0)" xlink:href="#aq"/></g><g id="l"><use transform="matrix(0.05,0,0,0.05,0,0)" xlink:href="#ad"/><use transform="matrix(0.05,0,0,0.05,10,0)" xlink:href="#an"/><use transform="matrix(0.05,0,0,0.05,20,0)" xlink:href="#ao"/><use transform="matrix(0.05,0,0,0.05,25,0)" xlink:href="#ag"/><use transform="matrix(0.05,0,0,0.05,30.950000000000003,0)" xlink:href="#ad"/></g><path d="M101-251c68 0 85 55 85 127S166 4 100 4C33 4 14-52 14-124c0-73 17-127 87-127zm-1 229c47 0 54-49 54-102s-4-102-53-102c-51 0-55 48-55 102 0 53 5 102 54 102" id="az"/><use transform="matrix(0.05,0,0,0.05,0,0)" xlink:href="#az" id="m"/><use transform="matrix(0.05,0,0,0.05,0,0)" xlink:href="#ad" id="n"/><use transform="matrix(0.05,0,0,0.05,0,0)" xlink:href="#av" id="o"/><path d="M212-179c-10-28-35-45-73-45-59 0-87 40-87 99 0 60 29 101 89 101 43 0 62-24 78-52l27 14C228-24 195 4 139 4 59 4 22-46 18-125c-6-104 99-153 187-111 19 9 31 26 39 46" id="aA"/><path d="M108 0H70L1-190h34L89-25l56-165h34" id="aB"/><g id="p"><use transform="matrix(0.05,0,0,0.05,0,0)" xlink:href="#aA"/><use transform="matrix(0.05,0,0,0.05,12.950000000000001,0)" xlink:href="#ak"/><use transform="matrix(0.05,0,0,0.05,22.950000000000003,0)" xlink:href="#an"/><use transform="matrix(0.05,0,0,0.05,32.95,0)" xlink:href="#aB"/><use transform="matrix(0.05,0,0,0.05,41.95,0)" xlink:href="#ad"/><use transform="matrix(0.05,0,0,0.05,51.95,0)" xlink:href="#ag"/><use transform="matrix(0.05,0,0,0.05,57.900000000000006,0)" xlink:href="#ao"/><use transform="matrix(0.05,0,0,0.05,62.900000000000006,0)" xlink:href="#ad"/></g><g id="q"><use transform="matrix(0.05,0,0,0.05,0,0)" xlink:href="#aB"/><use transform="matrix(0.05,0,0,0.05,9,0)" xlink:href="#ap"/><use transform="matrix(0.05,0,0,0.05,19,0)" xlink:href="#ax"/><use transform="matrix(0.05,0,0,0.05,22.95,0)" xlink:href="#ak"/><use transform="matrix(0.05,0,0,0.05,32.95,0)" xlink:href="#ag"/></g><g id="r"><use transform="matrix(0.05,0,0,0.05,0,0)" xlink:href="#ap"/><use transform="matrix(0.05,0,0,0.05,10,0)" xlink:href="#ax"/><use transform="matrix(0.05,0,0,0.05,13.949999999999998,0)" xlink:href="#ad"/><use transform="matrix(0.05,0,0,0.05,23.95,0)" xlink:href="#ap"/><use transform="matrix(0.05,0,0,0.05,33.95,0)" xlink:href="#ao"/><use transform="matrix(0.05,0,0,0.05,38.95,0)" xlink:href="#ay"/><use transform="matrix(0.05,0,0,0.05,48.95,0)" xlink:href="#ag"/><use transform="matrix(0.05,0,0,0.05,54.900000000000006,0)" xlink:href="#af"/><use transform="matrix(0.05,0,0,0.05,58.85,0)" xlink:href="#ak"/></g><path d="M115-194c53 0 69 39 70 98 0 66-23 100-70 100C84 3 66-7 56-30L54 0H23l1-261h32v101c10-23 28-34 59-34zm-8 174c40 0 45-34 45-75 0-40-5-75-45-74-42 0-51 32-51 76 0 43 10 73 51 73" id="aC"/><g id="s"><use transform="matrix(0.05,0,0,0.05,0,0)" xlink:href="#aC"/><use transform="matrix(0.05,0,0,0.05,10,0)" xlink:href="#ap"/><use transform="matrix(0.05,0,0,0.05,20,0)" xlink:href="#aq"/><use transform="matrix(0.05,0,0,0.05,29,0)" xlink:href="#ad"/></g><g id="t"><use transform="matrix(0.05,0,0,0.05,0,0)" xlink:href="#as"/><use transform="matrix(0.05,0,0,0.05,10,0)" xlink:href="#az"/></g><path d="M115-194c55 1 70 41 70 98S169 2 115 4C84 4 66-9 55-30l1 105H24l-1-265h31l2 30c10-21 28-34 59-34zm-8 174c40 0 45-34 45-75s-6-73-45-74c-42 0-51 32-51 76 0 43 10 73 51 73" id="aD"/><g id="u"><use transform="matrix(0.05,0,0,0.05,0,0)" xlink:href="#aD"/><use transform="matrix(0.05,0,0,0.05,10,0)" xlink:href="#ap"/><use transform="matrix(0.05,0,0,0.05,20,0)" xlink:href="#ag"/><use transform="matrix(0.05,0,0,0.05,25.950000000000003,0)" xlink:href="#ap"/></g><path d="M134-131c28 9 52 24 51 62-1 50-34 73-85 73S17-19 16-69c0-36 21-54 49-61-75-25-45-126 34-121 46 3 78 18 79 63 0 33-17 51-44 57zm-34-11c31 1 46-15 46-44 0-28-17-43-47-42-29 0-46 13-45 42 1 28 16 44 46 44zm1 122c35 0 51-18 51-52 0-30-18-46-53-46-33 0-51 17-51 47 0 34 19 51 53 51" id="aE"/><use transform="matrix(0.05,0,0,0.05,0,0)" xlink:href="#aE" id="v"/><path d="M110-160c48 1 74 30 74 79 0 53-28 85-80 85-65 0-83-55-86-122-5-90 50-162 133-122 14 7 22 21 27 39l-31 6c-5-40-67-38-82-6-9 19-15 44-15 74 11-20 30-34 60-33zm-7 138c34 0 49-23 49-58s-16-56-50-56c-29 0-50 16-49 49 1 36 15 65 50 65" id="aF"/><g id="w"><use transform="matrix(0.05,0,0,0.05,0,0)" xlink:href="#as"/><use transform="matrix(0.05,0,0,0.05,10,0)" xlink:href="#aF"/></g><use transform="matrix(0.05,0,0,0.05,0,0)" xlink:href="#aE" id="x"/><g id="y"><use transform="matrix(0.05,0,0,0.05,0,0)" xlink:href="#as"/><use transform="matrix(0.05,0,0,0.05,10,0)" xlink:href="#az"/></g><g id="z"><use transform="matrix(0.05,0,0,0.05,0,0)" xlink:href="#as"/><use transform="matrix(0.05,0,0,0.05,10,0)" xlink:href="#aF"/></g><use transform="matrix(0.05,0,0,0.05,0,0)" xlink:href="#az" id="A"/><use transform="matrix(0.05,0,0,0.05,0,0)" xlink:href="#as" id="B"/><use transform="matrix(0.05,0,0,0.05,0,0)" xlink:href="#au" id="C"/><path d="M126-127c33 6 58 20 58 59 0 88-139 92-164 29-3-8-5-16-6-25l32-3c6 27 21 44 54 44 32 0 52-15 52-46 0-38-36-46-79-43v-28c39 1 72-4 72-42 0-27-17-43-46-43-28 0-47 15-49 41l-32-3c6-42 35-63 81-64 48-1 79 21 79 65 0 36-21 52-52 59" id="aG"/><use transform="matrix(0.05,0,0,0.05,0,0)" xlink:href="#aG" id="D"/><path d="M155-56V0h-30v-56H8v-25l114-167h33v167h35v25h-35zm-30-156c-27 46-58 90-88 131h88v-131" id="aH"/><use transform="matrix(0.05,0,0,0.05,0,0)" xlink:href="#aH" id="E"/><use transform="matrix(0.05,0,0,0.05,0,0)" xlink:href="#av" id="F"/><path d="M96-169c-40 0-48 33-48 73s9 75 48 75c24 0 41-14 43-38l32 2c-6 37-31 61-74 61-59 0-76-41-82-99-10-93 101-131 147-64 4 7 5 14 7 22l-32 3c-4-21-16-35-41-35zm3 187c19-1 33 8 33 26 0 31-30 33-64 32V58c18 2 39 4 41-13 1-15-18-13-34-13L87 0h19" id="aI"/><path d="M141-36C126-15 110 5 73 4 37 3 15-17 15-53c-1-64 63-63 125-63 3-35-9-54-41-54-24 1-41 7-42 31l-33-3c5-37 33-52 76-52 45 0 72 20 72 64v82c-1 20 7 32 28 27v20c-31 9-61-2-59-35zM48-53c0 20 12 33 32 33 41-3 63-29 60-74-43 2-92-5-92 41zm117-205c-3 23-9 48-36 47-26-1-65-44-74 0H39c4-23 8-48 36-47s64 44 74 0h16" id="aJ"/><g id="G"><use transform="matrix(0.05,0,0,0.05,0,0)" xlink:href="#ac"/><use transform="matrix(0.05,0,0,0.05,12,0)" xlink:href="#ak"/><use transform="matrix(0.05,0,0,0.05,22,0)" xlink:href="#an"/><use transform="matrix(0.05,0,0,0.05,32,0)" xlink:href="#ao"/><use transform="matrix(0.05,0,0,0.05,37,0)" xlink:href="#am"/><use transform="matrix(0.05,0,0,0.05,47,0)" xlink:href="#ap"/><use transform="matrix(0.05,0,0,0.05,57,0)" xlink:href="#aI"/><use transform="matrix(0.05,0,0,0.05,66,0)" xlink:href="#aJ"/><use transform="matrix(0.05,0,0,0.05,76,0)" xlink:href="#ak"/></g><path d="M118-107v75H92v-75H18v-26h74v-75h26v75h74v26h-74" id="aK"/><use transform="matrix(0.05,0,0,0.05,0,0)" xlink:href="#aK" id="H"/><use transform="matrix(0.05,0,0,0.05,0,0)" xlink:href="#as" id="I"/><g id="J"><use transform="matrix(0.05,0,0,0.05,0,0)" xlink:href="#aA"/><use transform="matrix(0.05,0,0,0.05,12.950000000000001,0)" xlink:href="#ak"/><use transform="matrix(0.05,0,0,0.05,22.950000000000003,0)" xlink:href="#ag"/><use transform="matrix(0.05,0,0,0.05,28.900000000000002,0)" xlink:href="#ag"/><use transform="matrix(0.05,0,0,0.05,34.85,0)" xlink:href="#ad"/><use transform="matrix(0.05,0,0,0.05,44.85,0)" xlink:href="#ao"/><use transform="matrix(0.05,0,0,0.05,49.85,0)" xlink:href="#ak"/></g><path d="M30 0v-248h187v28H63v79h144v27H63v87h162V0H30" id="aL"/><g id="K"><use transform="matrix(0.05,0,0,0.05,0,0)" xlink:href="#aL"/><use transform="matrix(0.05,0,0,0.05,12,0)" xlink:href="#ag"/><use transform="matrix(0.05,0,0,0.05,17.95,0)" xlink:href="#ag"/><use transform="matrix(0.05,0,0,0.05,23.9,0)" xlink:href="#ap"/><use transform="matrix(0.05,0,0,0.05,33.9,0)" xlink:href="#ae"/><use transform="matrix(0.05,0,0,0.05,43.9,0)" xlink:href="#ak"/></g><use transform="matrix(0.05,0,0,0.05,0,0)" xlink:href="#az" id="L"/><g id="M"><use transform="matrix(0.05,0,0,0.05,0,0)" xlink:href="#aA"/><use transform="matrix(0.05,0,0,0.05,12.950000000000001,0)" xlink:href="#ak"/><use transform="matrix(0.05,0,0,0.05,22.950000000000003,0)" xlink:href="#an"/><use transform="matrix(0.05,0,0,0.05,32.95,0)" xlink:href="#ao"/><use transform="matrix(0.05,0,0,0.05,37.95,0)" xlink:href="#ap"/><use transform="matrix(0.05,0,0,0.05,47.95,0)" xlink:href="#ae"/><use transform="matrix(0.05,0,0,0.05,57.95,0)" xlink:href="#ak"/><use transform="matrix(0.05,0,0,0.05,67.95,0)" xlink:href="#ag"/></g><use transform="matrix(0.05,0,0,0.05,0,0)" xlink:href="#at" id="N"/><path d="M240 0l2-218c-23 76-54 145-80 218h-23L58-218 59 0H30v-248h44l77 211c21-75 51-140 76-211h43V0h-30" id="aM"/><g id="P"><use transform="matrix(0.05,0,0,0.05,0,0)" xlink:href="#aM"/><use transform="matrix(0.05,0,0,0.05,14.950000000000001,0)" xlink:href="#ak"/><use transform="matrix(0.05,0,0,0.05,24.950000000000003,0)" xlink:href="#aq"/><use transform="matrix(0.05,0,0,0.05,33.95,0)" xlink:href="#ao"/><use transform="matrix(0.05,0,0,0.05,38.95,0)" xlink:href="#ag"/><use transform="matrix(0.05,0,0,0.05,44.900000000000006,0)" xlink:href="#ap"/><use transform="matrix(0.05,0,0,0.05,54.900000000000006,0)" xlink:href="#ag"/></g><g id="Q"><use transform="matrix(0.05,0,0,0.05,0,0)" xlink:href="#aD"/><use transform="matrix(0.05,0,0,0.05,10,0)" xlink:href="#ak"/><use transform="matrix(0.05,0,0,0.05,20,0)" xlink:href="#an"/><use transform="matrix(0.05,0,0,0.05,30,0)" xlink:href="#ao"/><use transform="matrix(0.05,0,0,0.05,35,0)" xlink:href="#am"/><use transform="matrix(0.05,0,0,0.05,45,0)" xlink:href="#ap"/><use transform="matrix(0.05,0,0,0.05,55,0)" xlink:href="#aI"/><use transform="matrix(0.05,0,0,0.05,64,0)" xlink:href="#aJ"/><use transform="matrix(0.05,0,0,0.05,74,0)" xlink:href="#ak"/></g><g id="R"><use transform="matrix(0.05,0,0,0.05,0,0)" xlink:href="#an"/><use transform="matrix(0.05,0,0,0.05,10,0)" xlink:href="#ai"/><use transform="matrix(0.05,0,0,0.05,20,0)" xlink:href="#aj"/><use transform="matrix(0.05,0,0,0.05,34.95,0)" xlink:href="#ad"/><use transform="matrix(0.05,0,0,0.05,44.95,0)" xlink:href="#ag"/><use transform="matrix(0.05,0,0,0.05,50.900000000000006,0)" xlink:href="#ak"/></g><g id="S"><use transform="matrix(0.05,0,0,0.05,0,0)" xlink:href="#ao"/><use transform="matrix(0.05,0,0,0.05,5,0)" xlink:href="#ak"/><use transform="matrix(0.05,0,0,0.05,15,0)" xlink:href="#ao"/><use transform="matrix(0.05,0,0,0.05,20,0)" xlink:href="#ap"/><use transform="matrix(0.05,0,0,0.05,30,0)" xlink:href="#ax"/></g><g id="T"><use transform="matrix(0.05,0,0,0.05,0,0)" xlink:href="#ae"/><use transform="matrix(0.05,0,0,0.05,10,0)" xlink:href="#ad"/></g><g id="U"><use transform="matrix(0.05,0,0,0.05,0,0)" xlink:href="#aD"/><use transform="matrix(0.05,0,0,0.05,10,0)" xlink:href="#ad"/><use transform="matrix(0.05,0,0,0.05,20,0)" xlink:href="#ag"/><use transform="matrix(0.05,0,0,0.05,25.950000000000003,0)" xlink:href="#al"/><use transform="matrix(0.05,0,0,0.05,35.95,0)" xlink:href="#am"/><use transform="matrix(0.05,0,0,0.05,45.95,0)" xlink:href="#an"/><use transform="matrix(0.05,0,0,0.05,55.95,0)" xlink:href="#ao"/><use transform="matrix(0.05,0,0,0.05,60.95,0)" xlink:href="#ap"/><use transform="matrix(0.05,0,0,0.05,70.95,0)" xlink:href="#aq"/></g><path d="M18-27v-27l151-64-151-65v-27l175 74v36" id="aN"/><g id="V"><use transform="matrix(0.05,0,0,0.05,0,0)" xlink:href="#ah"/><use transform="matrix(0.05,0,0,0.05,12.950000000000001,0)" xlink:href="#ac"/><use transform="matrix(0.05,0,0,0.05,24.950000000000003,0)" xlink:href="#aN"/><use transform="matrix(0.05,0,0,0.05,35.45,0)" xlink:href="#ar"/><use transform="matrix(0.05,0,0,0.05,45.95,0)" xlink:href="#au"/><use transform="matrix(0.05,0,0,0.05,55.95,0)" xlink:href="#av"/><use transform="matrix(0.05,0,0,0.05,65.95,0)" xlink:href="#aF"/></g><g id="W"><use transform="matrix(0.05,0,0,0.05,0,0)" xlink:href="#ah"/><use transform="matrix(0.05,0,0,0.05,12.950000000000001,0)" xlink:href="#ac"/><use transform="matrix(0.05,0,0,0.05,24.950000000000003,0)" xlink:href="#at"/><use transform="matrix(0.05,0,0,0.05,35.45,0)" xlink:href="#ar"/><use transform="matrix(0.05,0,0,0.05,45.95,0)" xlink:href="#az"/></g><path d="M33 0v-248h34V0H33" id="aO"/><path d="M140-251c81 0 123 46 123 126C263-46 219 4 140 4 59 4 17-45 17-125s42-126 123-126zm0 227c63 0 89-41 89-101s-29-99-89-99c-61 0-89 39-89 99S79-25 140-24" id="aP"/><g id="X"><use transform="matrix(0.05,0,0,0.05,0,0)" xlink:href="#aO"/><use transform="matrix(0.05,0,0,0.05,5,0)" xlink:href="#ah"/><use transform="matrix(0.05,0,0,0.05,17.950000000000003,0)" xlink:href="#aO"/><use transform="matrix(0.05,0,0,0.05,22.950000000000003,0)" xlink:href="#aA"/><use transform="matrix(0.05,0,0,0.05,35.900000000000006,0)" xlink:href="#aO"/><use transform="matrix(0.05,0,0,0.05,40.900000000000006,0)" xlink:href="#aP"/></g><path d="M63-220v92h138v28H63V0H30v-248h175v28H63" id="aQ"/><g id="Y"><use transform="matrix(0.05,0,0,0.05,0,0)" xlink:href="#aQ"/><use transform="matrix(0.05,0,0,0.05,10.950000000000001,0)" xlink:href="#aO"/><use transform="matrix(0.05,0,0,0.05,15.950000000000001,0)" xlink:href="#aM"/></g><g id="Z"><use transform="matrix(0.05,0,0,0.05,0,0)" xlink:href="#ah"/><use transform="matrix(0.05,0,0,0.05,12.950000000000001,0)" xlink:href="#ac"/></g><path d="M63-70H37l-4-178h34zM33 0v-35h34V0H33" id="aR"/><g id="aa"><use transform="matrix(0.05,0,0,0.05,0,0)" xlink:href="#aR"/><use transform="matrix(0.05,0,0,0.05,5,0)" xlink:href="#ar"/></g><g id="ab"><use transform="matrix(0.05,0,0,0.05,0,0)" xlink:href="#ah"/><use transform="matrix(0.05,0,0,0.05,12.950000000000001,0)" xlink:href="#ai"/><use transform="matrix(0.05,0,0,0.05,22.950000000000003,0)" xlink:href="#aj"/><use transform="matrix(0.05,0,0,0.05,37.900000000000006,0)" xlink:href="#ad"/><use transform="matrix(0.05,0,0,0.05,47.900000000000006,0)" xlink:href="#ag"/><use transform="matrix(0.05,0,0,0.05,53.85,0)" xlink:href="#ak"/></g></defs></g></svg>